<svg width="299" height="61" viewBox="0 0 299 61" fill="none" xmlns="http://www.w3.org/2000/svg">
<g clip-path="url(#clip0_19_2)">
<path d="M0 30.5323C0 26.6982 0.829863 23.288 2.48959 20.3018C4.14933 17.2787 6.4545 14.9377 9.40514 13.2787C12.3926 11.5828 15.7674 10.7349 19.5295 10.7349C24.1398 10.7349 28.0862 11.9515 31.3689 14.3847C34.6515 16.8179 36.846 20.1359 37.9525 24.3387H27.5515C26.777 22.7165 25.6705 21.4815 24.232 20.6336C22.8305 19.7856 21.2261 19.3617 19.4188 19.3617C16.5051 19.3617 14.1446 20.3755 12.3373 22.4032C10.53 24.4308 9.62643 27.1406 9.62643 30.5323C9.62643 33.9241 10.53 36.6338 12.3373 38.6614C14.1446 40.689 16.5051 41.7029 19.4188 41.7029C21.2261 41.7029 22.8305 41.279 24.232 40.431C25.6705 39.583 26.777 38.3481 27.5515 36.7259H37.9525C36.846 40.9287 34.6515 44.2467 31.3689 46.6799C28.0862 49.0764 24.1398 50.2744 19.5295 50.2744C15.7674 50.2744 12.3926 49.4449 9.40514 47.7859C6.4545 46.0902 4.14933 43.749 2.48959 40.7628C0.829863 37.7766 0 34.3665 0 30.5323ZM57.7984 50.4403C54.7738 50.4403 52.0447 49.7953 49.6104 48.5048C47.2129 47.2144 45.3134 45.3713 43.912 42.9748C42.5471 40.5784 41.865 37.7766 41.865 34.5692C41.865 31.3987 42.5657 28.6152 43.9673 26.2189C45.3687 23.7857 47.2868 21.9239 49.721 20.6336C52.1553 19.3432 54.8845 18.6981 57.909 18.6981C60.9333 18.6981 63.6628 19.3432 66.097 20.6336C68.5313 21.9239 70.4491 23.7857 71.8507 26.2189C73.2521 28.6152 73.9531 31.3987 73.9531 34.5692C73.9531 37.7398 73.2338 40.5416 71.7954 42.9748C70.3938 45.3713 68.4574 47.2144 65.9864 48.5048C63.5521 49.7953 60.8227 50.4403 57.7984 50.4403ZM57.7984 42.2559C59.6055 42.2559 61.1361 41.5923 62.3903 40.2651C63.681 38.9379 64.3266 37.0393 64.3266 34.5692C64.3266 32.0991 63.6995 30.2005 62.4456 28.8733C61.2285 27.5461 59.7162 26.8825 57.909 26.8825C56.0648 26.8825 54.5343 27.5461 53.3171 28.8733C52.1 30.1636 51.4914 32.0623 51.4914 34.5692C51.4914 37.0393 52.0814 38.9379 53.2618 40.2651C54.4789 41.5923 55.9909 42.2559 57.7984 42.2559ZM97.7821 18.8087C101.397 18.8087 104.274 19.9884 106.413 22.3479C108.589 24.6705 109.677 27.8779 109.677 31.9701V49.9979H100.272V33.242C100.272 31.1775 99.7369 29.5738 98.6673 28.4309C97.5978 27.288 96.1594 26.7166 94.352 26.7166C92.5448 26.7166 91.1064 27.288 90.0367 28.4309C88.9672 29.5738 88.4323 31.1775 88.4323 33.242V49.9979H78.9718V19.1405H88.4323V23.2327C89.3913 21.8686 90.6823 20.7995 92.305 20.0253C93.9279 19.2142 95.7536 18.8087 97.7821 18.8087ZM128.81 50.4403C126.117 50.4403 123.72 49.9794 121.617 49.0578C119.515 48.1363 117.855 46.8826 116.638 45.2974C115.421 43.6752 114.739 41.8688 114.591 39.878H123.941C124.052 40.9472 124.55 41.8135 125.435 42.4771C126.32 43.1407 127.408 43.4725 128.699 43.4725C129.879 43.4725 130.783 43.2513 131.41 42.8089C132.074 42.3298 132.406 41.7215 132.406 40.984C132.406 40.0992 131.945 39.4541 131.023 39.0485C130.101 38.6061 128.607 38.1269 126.541 37.6107C124.328 37.0946 122.484 36.56 121.009 36.007C119.534 35.4172 118.261 34.5139 117.191 33.2973C116.122 32.0438 115.587 30.3664 115.587 28.265C115.587 26.4954 116.066 24.8917 117.026 23.4539C118.021 21.9792 119.46 20.8179 121.341 19.97C123.259 19.122 125.527 18.6981 128.146 18.6981C132.018 18.6981 135.061 19.6566 137.274 21.5737C139.524 23.4907 140.815 26.0346 141.147 29.2051H132.406C132.258 28.136 131.779 27.288 130.967 26.6613C130.193 26.0346 129.16 25.7212 127.869 25.7212C126.763 25.7212 125.914 25.9424 125.324 26.3848C124.734 26.7903 124.439 27.3618 124.439 28.0991C124.439 28.9839 124.9 29.6475 125.822 30.0899C126.781 30.5323 128.256 30.9747 130.248 31.4171C132.535 32.007 134.397 32.5968 135.836 33.1867C137.274 33.7397 138.528 34.6614 139.598 35.9517C140.704 37.2052 141.276 38.9011 141.313 41.0393C141.313 42.8457 140.796 44.4679 139.764 45.9057C138.768 47.3068 137.311 48.4128 135.393 49.2237C133.512 50.0347 131.318 50.4403 128.81 50.4403ZM164.307 41.9794V49.9979H159.494C156.063 49.9979 153.389 49.1684 151.472 47.5094C149.553 45.8137 148.595 43.0669 148.595 39.2697V26.9931H144.833V19.1405H148.595V11.6197H158.055V19.1405H164.251V26.9931H158.055V39.3803C158.055 40.3019 158.276 40.9655 158.719 41.3711C159.162 41.7768 159.899 41.9794 160.932 41.9794H164.307ZM168.802 30.6429C168.802 26.8456 169.632 23.4539 171.291 20.4677C172.951 17.4446 175.219 15.1036 178.096 13.4446C180.973 11.7487 184.182 10.9008 187.723 10.9008C192.038 10.9008 195.726 11.933 198.788 13.9976C201.886 16.0252 204.135 18.9008 205.537 22.6244H201.001C199.894 20.0068 198.197 17.9607 195.911 16.4861C193.661 15.0114 190.932 14.2741 187.723 14.2741C184.883 14.2741 182.319 14.9377 180.033 16.2649C177.783 17.5921 176.012 19.5091 174.722 22.0161C173.431 24.4861 172.785 27.3618 172.785 30.6429C172.785 33.9241 173.431 36.7997 174.722 39.2697C176.012 41.7397 177.783 43.6384 180.033 44.9656C182.319 46.2928 184.883 46.9564 187.723 46.9564C190.932 46.9564 193.661 46.2375 195.911 44.7997C198.197 43.3252 199.894 41.2973 201.001 38.7167H205.537C204.135 42.4033 201.886 45.2607 198.788 47.2882C195.689 49.3158 192.001 50.3297 187.723 50.3297C184.182 50.3297 180.973 49.5002 178.096 47.8412C175.219 46.1455 172.951 43.8043 171.291 40.8181C169.632 37.8319 168.802 34.4402 168.802 30.6429ZM226.476 50.4403C223.636 50.4403 221.073 49.8135 218.786 48.5601C216.536 47.2697 214.748 45.4633 213.42 43.1407C212.129 40.7814 211.483 38.0347 211.483 34.901C211.483 31.7673 212.147 29.0392 213.475 26.7166C214.803 24.3571 216.61 22.5506 218.897 21.2972C221.184 20.0068 223.747 19.3617 226.587 19.3617C229.427 19.3617 231.99 20.0068 234.277 21.2972C236.601 22.5506 238.408 24.3571 239.699 26.7166C241.027 29.0392 241.69 31.7673 241.69 34.901C241.69 37.9978 241.027 40.726 239.699 43.0854C238.371 45.4448 236.545 47.2697 234.222 48.5601C231.898 49.8135 229.316 50.4403 226.476 50.4403ZM226.476 47.067C228.468 47.067 230.312 46.6246 232.009 45.7398C233.705 44.8183 235.07 43.454 236.103 41.6476C237.172 39.8042 237.707 37.5554 237.707 34.901C237.707 32.2466 237.191 30.0162 236.158 28.2097C235.125 26.3664 233.761 25.0023 232.064 24.1175C230.367 23.1958 228.523 22.735 226.532 22.735C224.54 22.735 222.696 23.1958 220.999 24.1175C219.303 25.0023 217.938 26.3664 216.905 28.2097C215.909 30.0162 215.411 32.2466 215.411 34.901C215.411 37.5554 215.909 39.8042 216.905 41.6476C217.938 43.454 219.284 44.8183 220.944 45.7398C222.641 46.6246 224.485 47.067 226.476 47.067ZM252.623 25.1682C253.471 23.288 254.762 21.8317 256.495 20.7995C258.266 19.7672 260.424 19.2511 262.968 19.2511V23.288H261.917C259.114 23.288 256.864 24.0437 255.168 25.5553C253.471 27.0668 252.623 29.5922 252.623 33.1314V49.9979H248.75V19.8041H252.623V25.1682ZM272.612 26.4401C273.57 24.4124 275.083 22.735 277.147 21.4078C279.249 20.0437 281.739 19.3617 284.616 19.3617C287.346 19.3617 289.8 20.0068 291.974 21.2972C294.187 22.5506 295.902 24.3571 297.119 26.7166C298.375 29.0392 299 31.7489 299 34.8457C299 37.9425 298.375 40.6708 297.119 43.0301C295.902 45.3895 294.187 47.2144 291.974 48.5048C289.8 49.7953 287.346 50.4403 284.616 50.4403C281.778 50.4403 279.305 49.7767 277.202 48.4495C275.101 47.0856 273.57 45.3895 272.612 43.3619V64.2654H268.794V19.8041H272.612V26.4401ZM295.072 34.8457C295.072 32.3388 294.574 30.1821 293.578 28.3756C292.621 26.5323 291.293 25.1313 289.595 24.1728C287.899 23.2142 285.982 22.735 283.841 22.735C281.778 22.735 279.877 23.2327 278.143 24.2281C276.447 25.2235 275.101 26.6429 274.105 28.4862C273.11 30.3295 272.612 32.4678 272.612 34.901C272.612 37.3342 273.11 39.4724 274.105 41.3158C275.101 43.1593 276.447 44.5785 278.143 45.5739C279.877 46.5693 281.778 47.067 283.841 47.067C285.982 47.067 287.899 46.5879 289.595 45.6292C291.293 44.6338 292.621 43.2146 293.578 41.3711C294.574 39.4909 295.072 37.3158 295.072 34.8457Z" fill="white"/>
</g>
<defs>
<clipPath id="clip0_19_2">
<rect width="299" height="61" fill="white"/>
</clipPath>
</defs>
</svg>
