<svg width="31" height="31" viewBox="0 0 31 31" fill="none" xmlns="http://www.w3.org/2000/svg">
<path d="M15.5 2.58337C13.8038 2.58337 12.1241 2.91747 10.557 3.5666C8.98988 4.21572 7.56596 5.16715 6.36653 6.36658C3.94419 8.78892 2.58333 12.0743 2.58333 15.5C2.58333 21.2092 6.29041 26.053 11.4183 27.7709C12.0642 27.8742 12.2708 27.4738 12.2708 27.125V24.9421C8.69291 25.7171 7.93083 23.2113 7.93083 23.2113C7.33666 21.713 6.49708 21.3125 6.49708 21.3125C5.32166 20.5117 6.58749 20.5375 6.58749 20.5375C7.87916 20.628 8.56375 21.868 8.56375 21.868C9.68749 23.8313 11.5862 23.25 12.3225 22.94C12.4387 22.1005 12.7746 21.5321 13.1362 21.2092C10.2687 20.8863 7.25916 19.7755 7.25916 14.8542C7.25916 13.4205 7.74999 12.2709 8.58958 11.3538C8.46041 11.0309 8.00833 9.68754 8.71874 7.94379C8.71874 7.94379 9.80374 7.59504 12.2708 9.26129C13.2912 8.97712 14.4021 8.83504 15.5 8.83504C16.5979 8.83504 17.7087 8.97712 18.7292 9.26129C21.1962 7.59504 22.2812 7.94379 22.2812 7.94379C22.9917 9.68754 22.5396 11.0309 22.4104 11.3538C23.25 12.2709 23.7408 13.4205 23.7408 14.8542C23.7408 19.7884 20.7183 20.8734 17.8379 21.1963C18.3029 21.5967 18.7292 22.3846 18.7292 23.5859V27.125C18.7292 27.4738 18.9358 27.8871 19.5946 27.7709C24.7225 26.04 28.4167 21.2092 28.4167 15.5C28.4167 13.8038 28.0826 12.1242 27.4334 10.557C26.7843 8.98992 25.8329 7.566 24.6335 6.36658C23.434 5.16715 22.0101 4.21572 20.443 3.5666C18.8759 2.91747 17.1962 2.58337 15.5 2.58337Z" fill="#011936"/>
</svg>
