<svg width="20" height="20" viewBox="0 0 20 20" fill="none" xmlns="http://www.w3.org/2000/svg">
<g clip-path="url(#clip0_14_16)">
<path d="M3.39 19.1483C4.75292 19.2591 6.91625 19.375 10 19.375C13.0838 19.375 15.2471 19.2591 16.61 19.1483C17.98 19.037 19.0371 17.98 19.1483 16.61C19.2592 15.247 19.375 13.0837 19.375 9.99996C19.375 8.45413 19.3458 7.13996 19.3029 6.04163H0.697088C0.64737 7.36048 0.623338 8.68017 0.625005 9.99996C0.625005 13.0837 0.740838 15.247 0.851671 16.61C0.962921 17.98 2.02 19.037 3.39 19.1483Z" fill="#011936"/>
<path fill-rule="evenodd" clip-rule="evenodd" d="M0.756256 4.79167C0.786812 4.25472 0.818617 3.7875 0.851673 3.39C0.962923 2.02 2.02001 0.962917 3.39001 0.851667C4.75292 0.740833 6.91626 0.625 10 0.625C13.0838 0.625 15.2471 0.740833 16.61 0.851667C17.98 0.962917 19.0371 2.02 19.1483 3.39C19.1811 3.78722 19.2129 4.25444 19.2438 4.79167H0.756256ZM3.12501 2.91667C3.12501 2.75091 3.19085 2.59194 3.30806 2.47472C3.42527 2.35751 3.58425 2.29167 3.75001 2.29167H4.58334C4.7491 2.29167 4.90807 2.35751 5.02528 2.47472C5.14249 2.59194 5.20834 2.75091 5.20834 2.91667C5.20834 3.08243 5.14249 3.2414 5.02528 3.35861C4.90807 3.47582 4.7491 3.54167 4.58334 3.54167H3.75001C3.58425 3.54167 3.42527 3.47582 3.30806 3.35861C3.19085 3.2414 3.12501 3.08243 3.12501 2.91667ZM7.08334 2.29167C6.91758 2.29167 6.75861 2.35751 6.6414 2.47472C6.52419 2.59194 6.45834 2.75091 6.45834 2.91667C6.45834 3.08243 6.52419 3.2414 6.6414 3.35861C6.75861 3.47582 6.91758 3.54167 7.08334 3.54167H7.91667C8.08243 3.54167 8.2414 3.47582 8.35861 3.35861C8.47583 3.2414 8.54167 3.08243 8.54167 2.91667C8.54167 2.75091 8.47583 2.59194 8.35861 2.47472C8.2414 2.35751 8.08243 2.29167 7.91667 2.29167H7.08334Z" fill="#011936"/>
</g>
<defs>
<clipPath id="clip0_14_16">
<rect width="20" height="20" fill="white"/>
</clipPath>
</defs>
</svg>
