<svg width="189" height="63" viewBox="0 0 189 63" fill="none" xmlns="http://www.w3.org/2000/svg">
<g clip-path="url(#clip0_19_48)">
<mask id="mask0_19_48" style="mask-type:luminance" maskUnits="userSpaceOnUse" x="0" y="0" width="190" height="64">
<path d="M189.215 0H0V63.02H189.215V0Z" fill="white"/>
</mask>
<g mask="url(#mask0_19_48)">
<path d="M20.5504 5.35132C32.2437 5.35132 41.1061 13.8563 41.1061 26.7004C41.1061 38.3548 33.8413 46.5664 23.8029 47.9917V56.0199H17.3083V47.9917C7.26472 46.5664 0 38.2971 0 26.7004C0 13.914 8.85714 5.35132 20.5504 5.35132ZM17.3032 41.5095V24.3212H23.7976V41.5095C29.3503 39.9059 33.3053 34.3722 33.3053 26.7004C33.3053 17.6608 27.7527 11.6554 20.5504 11.6554C13.3481 11.6554 7.79552 17.7237 7.79552 26.7004C7.79552 34.3722 11.7505 39.9059 17.3032 41.5095Z" fill="white"/>
<path d="M62.8325 42.7619C61.594 45.8538 57.7535 48.3534 52.5599 48.3534C47.3663 48.3534 42.4017 45.4398 42.4017 39.6126C42.4017 34.3775 47.304 29.2053 58.1698 30.0961L57.5765 28.4297C55.9789 24.0907 51.3161 24.7405 45.113 24.8035V17.7866C56.0986 17.7866 62.3017 16.6547 65.2523 25.4585L72.694 47.5831H64.6019L62.8273 42.7672L62.8325 42.7619ZM59.7622 34.4351C55.6303 34.0788 52.0863 34.9697 52.0863 38.6012C52.0863 41.5148 54.449 43.1184 56.8115 43.1184C59.1741 43.1184 61.3598 41.5148 61.1257 38.0615L59.7674 34.4351H59.7622Z" fill="white"/>
<path d="M103.996 47.5779H96.7315V31.1023C96.7315 25.9301 94.3689 23.9073 91.2986 23.9073C87.6974 23.9073 84.1535 26.7633 84.1535 30.3897V47.5779H76.5922V17.7813H84.1535V23.0741C85.8084 19.563 89.5864 17.4827 94.1919 17.4827C100.572 17.4827 103.996 21.4653 103.996 28.9013V47.5779Z" fill="white"/>
<path d="M119.463 24.7981V36.9295C119.463 39.3139 120.467 41.499 123.069 41.499C124.604 41.499 125.598 40.9646 126.186 40.6187V45.665C123.834 47.6879 121.586 48.0494 119.993 48.0494C115.086 48.0494 112.38 44.5961 112.38 39.7278V24.793H108.893V17.7814H112.38V10.8694H119.463V17.7814H126.191V24.793H119.463V24.7981Z" fill="white"/>
<path d="M133.33 15.2505V47.5831H135.032C135.032 38.7113 137.145 30.3268 140.903 22.9118V17.792L133.33 15.2505Z" fill="white"/>
<path d="M177.335 42.7619C176.096 45.8538 172.256 48.3534 167.063 48.3534C161.869 48.3534 156.905 45.4398 156.905 39.6126C156.905 34.3775 161.807 29.2053 172.672 30.0961L172.079 28.4297C170.482 24.0907 165.819 24.7405 159.615 24.8035V17.7866C170.601 17.7866 176.804 16.6547 179.755 25.4585L187.197 47.5831H179.105L177.329 42.7672L177.335 42.7619ZM174.26 34.4351C170.128 34.0788 166.584 34.9697 166.584 38.6012C166.584 41.5148 168.946 43.1184 171.309 43.1184C173.672 43.1184 175.857 41.5148 175.623 38.0615L174.265 34.4351H174.26Z" fill="white"/>
<path d="M189.217 -7V-1.047C173.798 -1.047 160.033 6.27891 151.176 17.6661C149.417 19.93 147.851 22.3562 146.503 24.9293C142.953 31.6892 140.945 39.3977 140.945 47.5726H135.033C135.033 38.7008 137.146 30.3163 140.903 22.9012C149.849 5.17849 168.151 -7 189.217 -7Z" fill="#F47932"/>
</g>
</g>
<defs>
<clipPath id="clip0_19_48">
<rect width="189" height="63" fill="white"/>
</clipPath>
</defs>
</svg>
