<svg width="325" height="45" viewBox="0 0 325 45" fill="none" xmlns="http://www.w3.org/2000/svg">
<g clip-path="url(#clip0_20_60)">
<path d="M36.2145 43.4528L23.6392 27.4626C25.0749 27.3224 26.4025 27.1069 27.5684 26.7941C29.7164 26.2226 31.4865 25.3709 32.8683 24.2388C34.2498 23.1066 35.2538 21.7048 35.8798 20.0445C36.5059 18.384 36.819 16.4539 36.819 14.2651C36.819 12.0763 36.4951 10.0923 35.8475 8.43186C35.1997 6.77138 34.1636 5.38046 32.7388 4.26988C31.3139 3.15931 29.4897 2.31829 27.266 1.74682C25.0318 1.17536 22.3116 0.89502 19.1057 0.89502H0V43.4528H7.30766V27.6459H14.896L27.3309 43.4528H36.2145ZM7.30766 7.58004H19.1164C21.1026 7.58004 22.7432 7.72022 24.0494 8.00057C25.3555 8.2809 26.381 8.70141 27.1581 9.25131C27.9246 9.80121 28.4642 10.4913 28.7665 11.3215C29.0687 12.1518 29.2198 13.1329 29.2198 14.2759C29.2198 15.4188 29.0687 16.3461 28.7665 17.1979C28.4642 18.0497 27.9246 18.7506 27.1581 19.3004C26.3918 19.8503 25.3555 20.26 24.0494 20.5512C22.7542 20.8315 21.1026 20.9716 19.1164 20.9716H7.30766V7.58004Z" fill="url(#paint0_radial_20_60)"/>
<path d="M55.6009 36.0884H76.6495L79.6718 43.4421H87.5193L70.0542 0.89502H62.2069L44.7419 43.4528H52.5893L55.6117 36.0993L55.6009 36.0884ZM66.1251 10.4589L73.9077 29.4143H58.3534L66.1361 10.4589H66.1251Z" fill="url(#paint1_radial_20_60)"/>
<path d="M125.741 28.8535C127.975 28.2495 129.789 27.3331 131.192 26.1147C132.595 24.8964 133.621 23.3868 134.268 21.5861C134.916 19.7855 135.24 17.6829 135.24 15.2892C135.24 12.8956 134.916 10.8146 134.268 9.02471C133.621 7.24564 132.584 5.73611 131.16 4.52849C129.735 3.3101 127.911 2.40438 125.687 1.78979C123.453 1.18598 120.732 0.873291 117.527 0.873291H98.4208V43.4311H105.728V29.7483H117.537C120.786 29.7483 123.517 29.4463 125.752 28.8318M105.718 7.57989H117.527C119.513 7.57989 121.153 7.74162 122.46 8.06509C123.755 8.38856 124.791 8.86299 125.568 9.49914C126.335 10.1245 126.874 10.9332 127.177 11.9036C127.479 12.874 127.63 14.0169 127.63 15.3108C127.63 16.6046 127.479 17.7584 127.177 18.7503C126.874 19.7424 126.335 20.551 125.568 21.1872C124.802 21.8126 123.765 22.287 122.46 22.6213C121.164 22.9446 119.513 23.1065 117.527 23.1065H105.718V7.57989Z" fill="url(#paint2_radial_20_60)"/>
<path d="M173.376 36.2718C171.606 37.1236 168.918 37.544 165.312 37.544C163.726 37.544 162.193 37.4686 160.714 37.3068C159.236 37.1451 157.93 36.8 156.818 36.2718C155.695 35.7433 154.821 34.9779 154.173 33.9642C153.525 32.9508 153.202 31.5923 153.202 29.8885H146.207C146.207 32.5626 146.628 34.8268 147.481 36.6707C148.334 38.5144 149.553 40.0024 151.129 41.1453C152.716 42.2775 154.637 43.0968 156.915 43.6037C159.182 44.1104 161.741 44.3584 164.579 44.3584C171.153 44.3584 175.967 43.3773 178.999 41.4148C182.043 39.4525 183.565 36.2393 183.565 31.7755C183.565 29.5435 183.178 27.6674 182.41 26.1471C181.644 24.6267 180.51 23.3545 179.032 22.3194C177.553 21.2844 175.728 20.4541 173.56 19.8286C171.389 19.2033 168.907 18.6642 166.101 18.2221C164.072 17.8986 162.3 17.5752 160.801 17.2517C159.3 16.9282 158.059 16.5401 157.088 16.0979C156.116 15.6559 155.382 15.1168 154.896 14.4914C154.411 13.866 154.162 13.1005 154.162 12.2164C154.162 11.3322 154.335 10.6206 154.681 9.96286C155.026 9.31592 155.609 8.76602 156.418 8.32394C157.228 7.88186 158.297 7.54763 159.613 7.32119C160.93 7.09476 162.56 6.98694 164.514 6.98694C166.057 6.98694 167.526 7.06241 168.929 7.20259C170.332 7.34275 171.563 7.677 172.643 8.20533C173.722 8.73366 174.575 9.48843 175.201 10.4804C175.827 11.4724 176.139 12.7986 176.139 14.4591H183.08C183.08 11.7851 182.66 9.52078 181.828 7.677C180.996 5.83324 179.809 4.34526 178.266 3.21313C176.723 2.08099 174.834 1.26153 172.61 0.754763C170.376 0.247993 167.861 0 165.065 0C158.696 0 154.022 0.98119 151.032 2.94358C148.053 4.90595 146.563 8.14064 146.563 12.6369C146.563 14.8257 146.974 16.6479 147.783 18.1035C148.593 19.5591 149.726 20.7775 151.194 21.7479C152.651 22.7183 154.4 23.5054 156.429 24.0877C158.458 24.67 160.693 25.209 163.121 25.6942C164.503 25.9422 165.949 26.1686 167.472 26.3951C168.994 26.6215 170.385 26.9343 171.639 27.3332C172.902 27.7428 173.938 28.3036 174.768 29.0367C175.6 29.7699 176.021 30.7943 176.021 32.1421C176.021 34.0505 175.135 35.4308 173.376 36.2718Z" fill="url(#paint3_radial_20_60)"/>
<path d="M276.202 43.4528V36.757H249.421V25.511H273.158V18.8259H249.421V7.58004H275.597V0.89502H242.123V43.4528H276.202Z" fill="url(#paint4_radial_20_60)"/>
<path d="M315.826 0.89502L304.807 15.9148L293.795 0.89502H285.031L301.158 22.9016V43.4528H308.465V22.9016L324.591 0.89502H315.826Z" fill="url(#paint5_radial_20_60)"/>
<path d="M203.751 20.8963C215.895 20.8963 227.012 13.575 231.299 2.22125C231.46 1.78996 231.622 1.34788 231.773 0.89502H224.552C224.552 0.89502 220.546 12.6046 203.049 18.8259V0.89502H195.742V20.8963H203.751Z" fill="url(#paint6_radial_20_60)"/>
<path d="M203.038 24.8748C220.535 31.0963 224.54 42.8059 224.54 42.8059H231.762C231.611 42.353 231.448 41.9109 231.286 41.4797C227.001 30.1259 215.884 22.8047 203.74 22.8047H195.73V43.442H203.038V24.8641V24.8748Z" fill="url(#paint7_radial_20_60)"/>
<path d="M226.548 16.9478L221.327 22.1628L226.548 27.3776L231.768 22.1628L226.548 16.9478Z" fill="url(#paint8_radial_20_60)"/>
</g>
<defs>
<radialGradient id="paint0_radial_20_60" cx="0" cy="0" r="1" gradientTransform="matrix(324.591 43.273 -316.648 113.81 -2.08735e-05 2.50639e-05)" gradientUnits="userSpaceOnUse">
<stop offset="0.0467342" stop-color="#08B7D0"/>
<stop offset="0.626083" stop-color="#5B42EC"/>
<stop offset="0.965" stop-color="#7F56D9"/>
</radialGradient>
<radialGradient id="paint1_radial_20_60" cx="0" cy="0" r="1" gradientTransform="matrix(324.591 43.273 -316.648 113.81 1.83677e-05 2.01685e-05)" gradientUnits="userSpaceOnUse">
<stop offset="0.0467342" stop-color="#08B7D0"/>
<stop offset="0.626083" stop-color="#5B42EC"/>
<stop offset="0.965" stop-color="#7F56D9"/>
</radialGradient>
<radialGradient id="paint2_radial_20_60" cx="0" cy="0" r="1" gradientTransform="matrix(324.591 43.273 -316.648 113.81 -2.58258e-05 -5.3387e-05)" gradientUnits="userSpaceOnUse">
<stop offset="0.0467342" stop-color="#08B7D0"/>
<stop offset="0.626083" stop-color="#5B42EC"/>
<stop offset="0.965" stop-color="#7F56D9"/>
</radialGradient>
<radialGradient id="paint3_radial_20_60" cx="0" cy="0" r="1" gradientTransform="matrix(324.591 43.273 -316.648 113.81 -2.39764e-05 -3.08895e-06)" gradientUnits="userSpaceOnUse">
<stop offset="0.0467342" stop-color="#08B7D0"/>
<stop offset="0.626083" stop-color="#5B42EC"/>
<stop offset="0.965" stop-color="#7F56D9"/>
</radialGradient>
<radialGradient id="paint4_radial_20_60" cx="0" cy="0" r="1" gradientTransform="matrix(324.591 43.273 -316.648 113.81 -7.596e-06 1.85161e-05)" gradientUnits="userSpaceOnUse">
<stop offset="0.0467342" stop-color="#08B7D0"/>
<stop offset="0.626083" stop-color="#5B42EC"/>
<stop offset="0.965" stop-color="#7F56D9"/>
</radialGradient>
<radialGradient id="paint5_radial_20_60" cx="0" cy="0" r="1" gradientTransform="matrix(324.591 43.273 -316.648 113.81 1.08823e-05 1.60349e-05)" gradientUnits="userSpaceOnUse">
<stop offset="0.0467342" stop-color="#08B7D0"/>
<stop offset="0.626083" stop-color="#5B42EC"/>
<stop offset="0.965" stop-color="#7F56D9"/>
</radialGradient>
<radialGradient id="paint6_radial_20_60" cx="0" cy="0" r="1" gradientTransform="matrix(324.591 43.273 -316.648 113.81 -9.2142e-07 2.08765e-05)" gradientUnits="userSpaceOnUse">
<stop offset="0.0467342" stop-color="#08B7D0"/>
<stop offset="0.626083" stop-color="#5B42EC"/>
<stop offset="0.965" stop-color="#7F56D9"/>
</radialGradient>
<radialGradient id="paint7_radial_20_60" cx="0" cy="0" r="1" gradientTransform="matrix(324.591 43.273 -316.648 113.81 4.54418e-05 -2.38651e-05)" gradientUnits="userSpaceOnUse">
<stop offset="0.0467342" stop-color="#08B7D0"/>
<stop offset="0.626083" stop-color="#5B42EC"/>
<stop offset="0.965" stop-color="#7F56D9"/>
</radialGradient>
<radialGradient id="paint8_radial_20_60" cx="0" cy="0" r="1" gradientTransform="matrix(324.591 43.273 -316.648 113.81 0.000292298 -4.85507e-05)" gradientUnits="userSpaceOnUse">
<stop offset="0.0467342" stop-color="#08B7D0"/>
<stop offset="0.626083" stop-color="#5B42EC"/>
<stop offset="0.965" stop-color="#7F56D9"/>
</radialGradient>
<clipPath id="clip0_20_60">
<rect width="325" height="45" fill="white"/>
</clipPath>
</defs>
</svg>
